<svg width="26" height="28" fill="none" xmlns="http://www.w3.org/2000/svg"><path d="M10.327 10.578c2.7 0 4.89-2.368 4.89-5.29 0-2.92-2.19-5.288-4.89-5.288-2.701 0-4.89 2.368-4.89 5.289 0 2.92 2.189 5.289 4.89 5.289zM11.77 26.021a1.955 1.955 0 01-.502-1.068c-.056-.405.011-.819.191-1.18l.433-.881-.889-.29a1.757 1.757 0 01-.898-.705 1.996 1.996 0 01-.324-1.147v-1.807c-.001-.409.12-.807.344-1.135.225-.329.541-.57.902-.69l.889-.29-.424-.882a2.048 2.048 0 01-.19-1.16 1.98 1.98 0 01.475-1.061 14.274 14.274 0 00-1.89-.141 11.876 11.876 0 00-5.432 1.168A12.817 12.817 0 000 18.308v6.832a.92.92 0 00.239.623c.153.165.36.258.576.258h10.954z" fill="#fff"/><path d="M25.837 18.652l-1.63-.529a6.211 6.211 0 00-.473-1.252l.815-1.639a.33.33 0 00-.057-.38l-1.182-1.286a.302.302 0 00-.166-.09.289.289 0 00-.184.028l-1.508.882a6.059 6.059 0 00-1.166-.53l-.497-1.762a.333.333 0 00-.114-.16.294.294 0 00-.18-.06h-1.694a.295.295 0 00-.176.066.336.336 0 00-.11.163l-.489 1.763c-.411.13-.808.31-1.181.537l-1.476-.881a.29.29 0 00-.358.053l-1.198 1.27a.349.349 0 00-.057.388l.814 1.603a6.65 6.65 0 00-.53 1.26l-1.63.538a.294.294 0 00-.153.116.334.334 0 00-.058.193v1.807c-.001.07.02.137.058.193a.294.294 0 00.154.115l1.63.538c.122.432.286.849.489 1.243l-.815 1.675a.35.35 0 00.057.388l1.214 1.278a.29.29 0 00.359.053l1.524-.882c.363.211.745.38 1.141.503l.489 1.807c.02.066.06.124.113.166a.294.294 0 00.18.063h1.671a.295.295 0 00.176-.066.334.334 0 00.11-.163l.489-1.807a5.22 5.22 0 001.124-.503l1.54.882a.29.29 0 00.36-.053l1.19-1.278a.359.359 0 00.049-.388l-.816-1.657a6.39 6.39 0 00.465-1.217l1.63-.537a.32.32 0 00.154-.118.36.36 0 00.066-.19v-1.826a.376.376 0 00-.04-.183.34.34 0 00-.123-.134zm-7.197 4.16a2.578 2.578 0 01-1.515-.491A2.905 2.905 0 0116.12 21a3.167 3.167 0 01-.158-1.701 3.027 3.027 0 01.743-1.51c.38-.413.866-.694 1.394-.808a2.532 2.532 0 011.574.166c.498.222.923.6 1.223 1.084.3.484.46 1.054.46 1.637a3.07 3.07 0 01-.795 2.078 2.624 2.624 0 01-1.92.866z" fill="#fff"/></svg>