<svg width="25" height="25" fill="none" xmlns="http://www.w3.org/2000/svg"><path d="M22.222 0H2.778A2.786 2.786 0 000 2.778v19.444A2.786 2.786 0 002.778 25h19.444A2.786 2.786 0 0025 22.222V2.778A2.786 2.786 0 0022.222 0zm0 22.222H2.778V2.778h19.444v19.444zM4.444 6.528h6.945V8.61H4.444V6.528zm9.445 11.25h6.944v2.083H13.89v-2.083zm0-3.611h6.944v2.083H13.89v-2.083zm-6.945 6.666h2.084v-2.777h2.778v-2.084H9.028v-2.778H6.944v2.778H4.167v2.084h2.777v2.777zm8.473-9.86l1.944-1.945 1.945 1.944 1.527-1.389L18.89 7.64l1.944-1.945-1.527-1.527L17.36 6.11l-1.944-1.944-1.528 1.527 1.944 1.945-1.944 1.944 1.528 1.39z" fill="#1E638F"/></svg>