<svg width="26" height="28" fill="none" xmlns="http://www.w3.org/2000/svg"><path d="M5.622 12.299h2.811v2.732h-2.81V12.3zm0 5.466h2.811v2.732h-2.81v-2.732zm5.622-5.466h2.811v2.732h-2.81V12.3zm0 5.466h2.811v2.732h-2.81v-2.732zm5.622-5.466h2.812v2.732h-2.812V12.3zm0 5.466h2.812v2.732h-2.812v-2.732z" fill="#fff"/><path d="M2.811 27.33H22.49c1.55 0 2.811-1.226 2.811-2.733V5.466c0-1.507-1.26-2.733-2.811-2.733h-2.811V0h-2.811v2.733H8.433V0h-2.81v2.733H2.81C1.261 2.733 0 3.959 0 5.466v19.131c0 1.507 1.26 2.733 2.811 2.733zM22.49 8.199l.001 16.398H2.811V8.199H22.49z" fill="#fff"/></svg>