<svg width="22" height="22" fill="none" xmlns="http://www.w3.org/2000/svg"><path d="M4.714 14.143H1.571c-.867 0-1.571.703-1.571 1.571v4.715C0 21.296.704 22 1.571 22h3.143c.868 0 1.572-.704 1.572-1.571v-4.715c0-.868-.704-1.571-1.572-1.571zM12.571 7.857H9.428c-.868 0-1.571.704-1.571 1.572v11c0 .867.703 1.571 1.571 1.571h3.143c.868 0 1.572-.704 1.572-1.571v-11c0-.868-.704-1.572-1.572-1.572zM20.429 0h-3.143c-.868 0-1.572.704-1.572 1.571V20.43c0 .867.704 1.571 1.572 1.571h3.143c.868 0 1.571-.704 1.571-1.571V1.57C22 .704 21.297 0 20.43 0z" fill="#fff"/></svg>