<svg width="21" height="21" fill="none" xmlns="http://www.w3.org/2000/svg"><path d="M1.167 11.667h7A1.17 1.17 0 009.333 10.5V1.167A1.17 1.17 0 008.167 0h-7A1.17 1.17 0 000 1.167V10.5a1.17 1.17 0 001.167 1.167zm0 9.333h7a1.17 1.17 0 001.166-1.167v-4.666A1.17 1.17 0 008.167 14h-7A1.17 1.17 0 000 15.167v4.666A1.17 1.17 0 001.167 21zm11.666 0h7A1.17 1.17 0 0021 19.833V10.5a1.17 1.17 0 00-1.167-1.167h-7a1.17 1.17 0 00-1.166 1.167v9.333A1.17 1.17 0 0012.833 21zM11.667 1.167v4.666A1.17 1.17 0 0012.833 7h7A1.17 1.17 0 0021 5.833V1.167A1.17 1.17 0 0019.833 0h-7a1.17 1.17 0 00-1.166 1.167z" fill="#fff"/></svg>