<svg width="27" height="25" fill="none" xmlns="http://www.w3.org/2000/svg"><path d="M26.158 13.393a.898.898 0 01-.325-.059.853.853 0 01-.275-.17L13.477 1.892 1.395 13.164a.884.884 0 01-.582.19.876.876 0 01-.565-.231.764.764 0 01-.247-.527.756.756 0 01.202-.543L12.885.229A.878.878 0 0113.48 0c.223 0 .437.082.596.23l12.681 11.823c.117.11.195.25.227.403a.74.74 0 01-.05.452.803.803 0 01-.31.352.889.889 0 01-.467.133z" fill="#fff"/><path d="M13.5 4.464l-9.642 9.434v9.535c0 .416.17.814.47 1.108.302.294.71.459 1.137.459h5.625v-7.835h4.822V25h5.624c.427 0 .835-.165 1.137-.459.301-.294.47-.692.47-1.108v-9.59l-9.642-9.379z" fill="#fff"/></svg>