<svg xmlns="http://www.w3.org/2000/svg" style="margin:auto;background:0 0" width="180" height="180" viewBox="0 0 100 100" preserveAspectRatio="xMidYMid" display="block"><rect x="48" y="34.5" rx="2" ry="2.5" width="4" height="5" fill="#0e0104"><animate attributeName="opacity" values="1;0" keyTimes="0;1" dur="1.01010101010101s" begin="-0.9324009324009324s" repeatCount="indefinite"/></rect><rect x="48" y="34.5" rx="2" ry="2.5" width="4" height="5" fill="#0e0104" transform="rotate(27.692 50 50)"><animate attributeName="opacity" values="1;0" keyTimes="0;1" dur="1.01010101010101s" begin="-0.8547008547008547s" repeatCount="indefinite"/></rect><rect x="48" y="34.5" rx="2" ry="2.5" width="4" height="5" fill="#0e0104" transform="rotate(55.385 50 50)"><animate attributeName="opacity" values="1;0" keyTimes="0;1" dur="1.01010101010101s" begin="-0.777000777000777s" repeatCount="indefinite"/></rect><rect x="48" y="34.5" rx="2" ry="2.5" width="4" height="5" fill="#0e0104" transform="rotate(83.077 50 50)"><animate attributeName="opacity" values="1;0" keyTimes="0;1" dur="1.01010101010101s" begin="-0.6993006993006993s" repeatCount="indefinite"/></rect><rect x="48" y="34.5" rx="2" ry="2.5" width="4" height="5" fill="#0e0104" transform="rotate(110.77 50 50)"><animate attributeName="opacity" values="1;0" keyTimes="0;1" dur="1.01010101010101s" begin="-0.6216006216006216s" repeatCount="indefinite"/></rect><rect x="48" y="34.5" rx="2" ry="2.5" width="4" height="5" fill="#0e0104" transform="rotate(138.462 50 50)"><animate attributeName="opacity" values="1;0" keyTimes="0;1" dur="1.01010101010101s" begin="-0.5439005439005439s" repeatCount="indefinite"/></rect><rect x="48" y="34.5" rx="2" ry="2.5" width="4" height="5" fill="#0e0104" transform="rotate(166.154 50 50)"><animate attributeName="opacity" values="1;0" keyTimes="0;1" dur="1.01010101010101s" begin="-0.4662004662004662s" repeatCount="indefinite"/></rect><rect x="48" y="34.5" rx="2" ry="2.5" width="4" height="5" fill="#0e0104" transform="rotate(193.846 50 50)"><animate attributeName="opacity" values="1;0" keyTimes="0;1" dur="1.01010101010101s" begin="-0.3885003885003885s" repeatCount="indefinite"/></rect><rect x="48" y="34.5" rx="2" ry="2.5" width="4" height="5" fill="#0e0104" transform="rotate(221.538 50 50)"><animate attributeName="opacity" values="1;0" keyTimes="0;1" dur="1.01010101010101s" begin="-0.3108003108003108s" repeatCount="indefinite"/></rect><rect x="48" y="34.5" rx="2" ry="2.5" width="4" height="5" fill="#0e0104" transform="rotate(249.23 50 50)"><animate attributeName="opacity" values="1;0" keyTimes="0;1" dur="1.01010101010101s" begin="-0.2331002331002331s" repeatCount="indefinite"/></rect><rect x="48" y="34.5" rx="2" ry="2.5" width="4" height="5" fill="#0e0104" transform="rotate(276.923 50 50)"><animate attributeName="opacity" values="1;0" keyTimes="0;1" dur="1.01010101010101s" begin="-0.1554001554001554s" repeatCount="indefinite"/></rect><rect x="48" y="34.5" rx="2" ry="2.5" width="4" height="5" fill="#0e0104" transform="rotate(304.615 50 50)"><animate attributeName="opacity" values="1;0" keyTimes="0;1" dur="1.01010101010101s" begin="-0.0777000777000777s" repeatCount="indefinite"/></rect><rect x="48" y="34.5" rx="2" ry="2.5" width="4" height="5" fill="#0e0104" transform="rotate(332.308 50 50)"><animate attributeName="opacity" values="1;0" keyTimes="0;1" dur="1.01010101010101s" begin="0s" repeatCount="indefinite"/></rect></svg>