<svg width="22" height="25" fill="none" xmlns="http://www.w3.org/2000/svg"><path d="M18.972 0l-1.176.841.321.314-1.174.842-.322-.315-11.754 8.412.34.331L4.04 11.64l1.907 1.86 1.61-.778.34.332 2.724-1.95a4.22 4.22 0 002.002.93c.102.927.119 1.915-.061 2.864a6.598 6.598 0 00-.835-.059c-2.481.016-4.581 1.383-5.289 3.268l-.003.009-.637 1.542-.608-.512c-2.219-1.866-1.66-3.307-1.267-3.89l1.586 1.335 1.349-1.136-5.512-4.63L0 11.956l1.718 1.445c-.74.889-2.714 3.839.755 6.756l2.314 1.948-.852 2.064h15.583l-2.5-6.053-.003-.009c-.28-.74-.775-1.408-1.44-1.945.608-1.581.609-3.25.37-4.733.634-.398 1.114-.944 1.38-1.571a2.88 2.88 0 00-.165-2.591 3.425 3.425 0 00-.398-.558l2.887-2.065-.32-.313 1.173-.844.323.316L22 2.962 18.972 0zM6.102 12.727l-1.127-1.1.594-.619 1.354 1.324-.82.395zm-4.756-1.334l4.835 4.063-.449.377-4.835-4.06.45-.38zm10.381 10.704c-1.713 0-3.1-1.16-3.1-2.592 0-1.432 1.387-2.592 3.1-2.592s3.101 1.16 3.101 2.592c0 1.432-1.388 2.592-3.1 2.592zm4.697-12.508c-.446 1.063-1.638 1.727-2.913 1.727-.344 0-.694-.049-1.037-.15-1.616-.481-2.465-1.964-1.898-3.314.446-1.062 1.636-1.726 2.91-1.726.345 0 .696.049 1.04.15 1.615.48 2.464 1.965 1.898 3.313zm2.437-5.716l-1.449-1.418 1.174-.842 1.449 1.417-1.174.843z" fill="#fff"/><path d="M14.962 9.158c.284-.675-.14-1.417-.948-1.658-.808-.24-1.693.112-1.976.787-.284.675.141 1.417.949 1.658.807.24 1.692-.112 1.975-.787zM11.727 20.801c.857 0 1.552-.58 1.552-1.296 0-.716-.695-1.296-1.552-1.296-.857 0-1.551.58-1.551 1.296 0 .716.694 1.296 1.551 1.296z" fill="#fff"/></svg>