<svg width="24" height="25" fill="none" xmlns="http://www.w3.org/2000/svg"><path d="M11.554 24.625h.002a2.062 2.062 0 001.99-1.756l.03-.2H9.456l.03.2a2.055 2.055 0 002.067 1.756zM20.121 20.52a11.575 11.575 0 01-1.448-1.846l-.007-.011h0a10.196 10.196 0 01-1.184-4.194v-.01h0v-3.482 0c0-.613-.093-1.222-.275-1.808l-.132-.425.386.221c.475.272.992.465 1.529.572l.117.024.02.118c.075.426.113.858.116 1.29v3.476a8.713 8.713 0 00.93 3.308 9.972 9.972 0 001.736 2.02.88.88 0 01.299.66v.959a.879.879 0 01-.881.88H1.706a.881.881 0 01-.881-.88v-.959 0a.878.878 0 01.298-.659 9.974 9.974 0 001.708-2.02 8.713 8.713 0 00.93-3.31v-3.473 0h.175A7.61 7.61 0 015.8 5.962a7.633 7.633 0 014.7-2.553l9.621 17.11zm0 0H2.891a11.574 11.574 0 001.447-1.846h0l.007-.011a10.196 10.196 0 001.184-4.194h0V10.97h0a6.017 6.017 0 011.754-4.274 6.037 6.037 0 014.269-1.78 5.91 5.91 0 013.262.986l.389.258-.123-.45a5.097 5.097 0 01-.177-1.19v-.55l-.098-.048a7.652 7.652 0 00-2.246-.7v-.735a1.115 1.115 0 00-1.117-1.116 1.118 1.118 0 00-1.117 1.116v.772M20.021 8.221a3.701 3.701 0 003.704-3.698A3.701 3.701 0 0020.021.825a3.701 3.701 0 00-3.704 3.698 3.701 3.701 0 003.704 3.698z" fill="#fff" stroke="#fff" stroke-width=".35"/></svg>