<svg width="29" height="26" fill="none" xmlns="http://www.w3.org/2000/svg"><path d="M21.622 16.071a7.756 7.756 0 00-14.954 0l-1.076 3.9a4.716 4.716 0 004.546 5.97h8.013a4.716 4.716 0 004.546-5.97l-1.075-3.9zm-1.22 6.868a2.808 2.808 0 01-2.251 1.116h-8.013a2.83 2.83 0 01-2.728-3.582l1.076-3.9a5.87 5.87 0 0111.317 0l1.076 3.9a2.81 2.81 0 01-.477 2.467zM7.665 11.693c.165-1.026-.053-2.124-.613-3.093-.56-.97-1.402-1.707-2.372-2.078-1.039-.397-2.099-.333-2.985.178C-.067 7.718-.531 10.225.662 12.29c.559.969 1.401 1.706 2.372 2.077.43.167.886.255 1.348.257a3.25 3.25 0 001.637-.435c.886-.512 1.47-1.398 1.646-2.496zm-1.863-.298c-.084.526-.342.938-.727 1.16-.384.222-.87.24-1.368.05-.567-.217-1.068-.664-1.412-1.259-.66-1.144-.503-2.523.343-3.012.213-.12.454-.183.699-.18.23.002.456.046.67.13.567.217 1.068.664 1.411 1.259.344.595.48 1.252.384 1.852zM7.87 7.784c.67.536 1.435.815 2.208.815.232 0 .463-.025.69-.075 1.988-.432 3.193-2.679 2.687-5.008-.238-1.094-.816-2.053-1.627-2.702C10.96.12 9.93-.143 8.931.074c-1.988.433-3.194 2.68-2.688 5.01.238 1.093.816 2.052 1.627 2.7zM9.33 1.918c.092-.02.186-.03.28-.03.35 0 .71.138 1.04.4.473.379.814.957.96 1.629.28 1.29-.29 2.556-1.244 2.764-.434.094-.903-.037-1.319-.37-.474-.379-.815-.957-.96-1.628-.282-1.291.288-2.557 1.243-2.765zM26.594 6.7c-.886-.511-1.946-.575-2.985-.178-.97.371-1.813 1.109-2.372 2.078-.56.969-.777 2.067-.613 3.093.175 1.098.76 1.984 1.646 2.496a3.25 3.25 0 001.637.435c.462-.002.919-.09 1.348-.257.97-.37 1.813-1.109 2.373-2.078 1.192-2.064.728-4.571-1.034-5.589zm-.6 4.646c-.344.595-.845 1.042-1.412 1.258-.498.19-.984.173-1.368-.049-.385-.222-.643-.634-.727-1.16-.096-.6.04-1.257.384-1.852.343-.594.844-1.041 1.411-1.258.213-.084.44-.129.67-.131.245-.003.486.06.699.18.846.489 1.003 1.868.343 3.012zM17.521 8.524c.227.05.458.075.69.075.773 0 1.538-.28 2.208-.815.811-.648 1.389-1.607 1.626-2.7.507-2.33-.699-4.577-2.687-5.01-1-.217-2.029.046-2.897.74-.811.649-1.39 1.608-1.627 2.702-.506 2.33.7 4.576 2.688 5.008zm-.843-4.608c.146-.671.487-1.25.96-1.628.33-.263.69-.4 1.04-.4.094 0 .188.01.28.03.955.207 1.525 1.474 1.244 2.764-.146.671-.487 1.25-.961 1.628-.416.333-.884.465-1.319.37-.955-.207-1.525-1.473-1.244-2.764z" fill="#fff"/></svg>