<svg width="20" height="20" fill="none" xmlns="http://www.w3.org/2000/svg"><path d="M19.753 8.48l-2.236-.667a7.76 7.76 0 00-.634-1.553l1.095-2.047a.406.406 0 00-.074-.48l-1.595-1.6a.408.408 0 00-.48-.073l-2.036 1.087a7.759 7.759 0 00-1.574-.667L11.55.273A.407.407 0 0011.158 0H8.902a.407.407 0 00-.387.287l-.667 2.2a7.765 7.765 0 00-1.589.666l-2.002-1.08a.407.407 0 00-.48.074l-1.622 1.58a.406.406 0 00-.073.48l1.081 2c-.28.5-.504 1.03-.667 1.58l-2.21.666A.407.407 0 000 8.84v2.253a.407.407 0 00.287.387l2.222.667c.165.54.389 1.061.667 1.553l-1.094 2.093a.406.406 0 00.073.48l1.595 1.594a.407.407 0 00.48.073l2.063-1.1a7.78 7.78 0 001.535.627l.667 2.246a.406.406 0 00.387.287h2.256a.407.407 0 00.387-.287l.667-2.253a7.761 7.761 0 001.521-.627l2.076 1.107a.407.407 0 00.48-.073l1.595-1.594a.406.406 0 00.073-.48l-1.107-2.066a7.75 7.75 0 00.634-1.527l2.249-.667a.407.407 0 00.287-.386V8.873a.406.406 0 00-.247-.393zm-9.723 5.187a3.673 3.673 0 01-3.391-2.264 3.663 3.663 0 012.675-5 3.673 3.673 0 013.768 1.56 3.664 3.664 0 01-3.052 5.704z" fill="#fff"/></svg>