<svg width="27" height="26" fill="none" xmlns="http://www.w3.org/2000/svg"><path d="M25.579 21.667v1.444C25.579 24.7 24.3 26 22.737 26H2.842a2.82 2.82 0 01-2.01-.846A2.913 2.913 0 010 23.11V2.89C0 2.123.3 1.388.832.846A2.819 2.819 0 012.842 0h19.895c1.563 0 2.842 1.3 2.842 2.889v1.444h-12.79c-.753 0-1.476.305-2.01.846a2.913 2.913 0 00-.832 2.043v11.556c0 .766.3 1.5.833 2.043a2.819 2.819 0 002.01.846h12.789zm-12.79-2.89H27V7.223H12.79v11.556zm5.685-3.61c-1.18 0-2.132-.968-2.132-2.167 0-1.199.952-2.167 2.132-2.167 1.18 0 2.131.968 2.131 2.167 0 1.199-.952 2.167-2.131 2.167z" fill="#fff"/></svg>